<?xml version="1.0" encoding="utf-8" ?>
<svg baseProfile="full" height="984" version="1.1" width="824" xmlns="http://www.w3.org/2000/svg" xmlns:ev="http://www.w3.org/2001/xml-events" xmlns:xlink="http://www.w3.org/1999/xlink"><defs /><rect fill="lightblue" height="360" stroke="none" width="480" x="332" y="592" /><text alignment-baseline="middle" font-size="14" text-anchor="middle" x="572.0" y="772.0">Living</text><rect fill="lightblue" height="240" stroke="none" width="320" x="12" y="372" /><text alignment-baseline="middle" font-size="14" text-anchor="middle" x="172.0" y="492.0">Kitchen</text><rect fill="lightblue" height="240" stroke="none" width="280" x="52" y="612" /><text alignment-baseline="middle" font-size="14" text-anchor="middle" x="192.0" y="732.0">Dining</text><rect fill="lightblue" height="400" stroke="none" width="80" x="372.0" y="572" /><text alignment-baseline="middle" font-size="14" text-anchor="middle" x="412.0" y="772.0">Hall</text><rect fill="lightblue" height="240" stroke="none" width="280" x="72" y="12" /><text alignment-baseline="middle" font-size="14" text-anchor="middle" x="212.0" y="132.0">Bedroom 1</text><rect fill="lightblue" height="240" stroke="none" width="280" x="472" y="12" /><text alignment-baseline="middle" font-size="14" text-anchor="middle" x="612.0" y="132.0">Bedroom 2</text><rect fill="lightblue" height="160" stroke="none" width="200" x="472" y="252" /><text alignment-baseline="middle" font-size="14" text-anchor="middle" x="572.0" y="332.0">Bathroom 1</text><rect fill="lightblue" height="160" stroke="none" width="200" x="472" y="412" /><text alignment-baseline="middle" font-size="14" text-anchor="middle" x="572.0" y="492.0">Bathroom 2</text><line stroke="black" stroke-width="4" x1="332" x2="812" y1="592" y2="592" /><line stroke="black" stroke-width="4" x1="332" x2="812" y1="952" y2="952" /><line stroke="black" stroke-width="4" x1="332" x2="332" y1="592" y2="682.0" /><line stroke="black" stroke-width="4" x1="332" x2="332" y1="782.0" y2="952" /><line stroke="black" stroke-width="4" x1="812" x2="812" y1="592" y2="952" /><line stroke="black" stroke-width="4" x1="12" x2="332" y1="372" y2="372" /><line stroke="black" stroke-width="4" x1="12" x2="142.0" y1="612" y2="612" /><line stroke="black" stroke-width="4" x1="242.0" x2="332" y1="612" y2="612" /><line stroke="black" stroke-width="4" x1="12" x2="12" y1="372" y2="612" /><line stroke="black" stroke-width="4" x1="332" x2="332" y1="372" y2="612" /><line stroke="black" stroke-width="4" x1="52" x2="142.0" y1="612" y2="612" /><line stroke="black" stroke-width="4" x1="242.0" x2="332" y1="612" y2="612" /><line stroke="black" stroke-width="4" x1="52" x2="332" y1="852" y2="852" /><line stroke="black" stroke-width="4" x1="52" x2="52" y1="612" y2="852" /><line stroke="black" stroke-width="4" x1="332" x2="332" y1="612" y2="682.0" /><line stroke="black" stroke-width="4" x1="332" x2="332" y1="782.0" y2="852" /><line stroke="black" stroke-width="4" x1="372.0" x2="452.0" y1="572" y2="572" /><line stroke="black" stroke-width="4" x1="372.0" x2="452.0" y1="972" y2="972" /><line stroke="black" stroke-width="4" x1="372.0" x2="372.0" y1="572" y2="972" /><line stroke="black" stroke-width="4" x1="452.0" x2="452.0" y1="572" y2="972" /><line stroke="black" stroke-width="4" x1="72" x2="352" y1="12" y2="12" /><line stroke="black" stroke-width="4" x1="72" x2="352" y1="252" y2="252" /><line stroke="black" stroke-width="4" x1="72" x2="72" y1="12" y2="252" /><line stroke="black" stroke-width="4" x1="352" x2="352" y1="12" y2="252" /><line stroke="black" stroke-width="4" x1="472" x2="752" y1="12" y2="12" /><line stroke="black" stroke-width="4" x1="472" x2="752" y1="252" y2="252" /><line stroke="black" stroke-width="4" x1="472" x2="472" y1="12" y2="252" /><line stroke="black" stroke-width="4" x1="752" x2="752" y1="12" y2="252" /><line stroke="black" stroke-width="4" x1="472" x2="672" y1="252" y2="252" /><line stroke="black" stroke-width="2" x1="472" x2="672" y1="412" y2="412" /><line stroke="black" stroke-width="4" x1="472" x2="472" y1="252" y2="412" /><line stroke="black" stroke-width="4" x1="672" x2="672" y1="252" y2="412" /><line stroke="black" stroke-width="4" x1="472" x2="672" y1="572" y2="572" /><line stroke="black" stroke-width="4" x1="472" x2="472" y1="412" y2="572" /><line stroke="black" stroke-width="4" x1="672" x2="672" y1="412" y2="572" /></svg>