<?xml version="1.0" encoding="utf-8" ?>
<svg baseProfile="full" height="1064" version="1.1" width="1024" xmlns="http://www.w3.org/2000/svg" xmlns:ev="http://www.w3.org/2001/xml-events" xmlns:xlink="http://www.w3.org/1999/xlink"><defs /><rect fill="none" height="1040" stroke="black" stroke-width="4" width="1000" x="12" y="12" /><rect fill="lightblue" height="360" stroke="black" stroke-width="2" width="480" x="332" y="532" /><text alignment-baseline="middle" font-size="14" text-anchor="middle" x="572.0" y="712.0">Living</text><rect fill="lightblue" height="240" stroke="black" stroke-width="2" width="320" x="12" y="532" /><text alignment-baseline="middle" font-size="14" text-anchor="middle" x="172.0" y="652.0">Kitchen</text><rect fill="lightblue" height="360" stroke="black" stroke-width="2" width="120" x="332" y="172" /><text alignment-baseline="middle" font-size="14" text-anchor="middle" x="392.0" y="352.0">Hall</text><rect fill="lightblue" height="240" stroke="black" stroke-width="2" width="280" x="52" y="172" /><text alignment-baseline="middle" font-size="14" text-anchor="middle" x="192.0" y="292.0">Bedroom 1</text><rect fill="lightblue" height="240" stroke="black" stroke-width="2" width="280" x="452" y="172" /><text alignment-baseline="middle" font-size="14" text-anchor="middle" x="592.0" y="292.0">Bedroom 2</text><rect fill="lightblue" height="160" stroke="black" stroke-width="2" width="200" x="332" y="12" /><text alignment-baseline="middle" font-size="14" text-anchor="middle" x="432.0" y="92.0">Bathroom 1</text><rect fill="lightblue" height="160" stroke="black" stroke-width="2" width="200" x="812" y="892" /><text alignment-baseline="middle" font-size="14" text-anchor="middle" x="912.0" y="972.0">Bathroom 2</text><rect fill="white" height="100" stroke="none" width="2" x="332" y="602.0" /><rect fill="white" height="100" stroke="none" width="2" x="332" y="242.0" /><rect fill="white" height="100" stroke="none" width="2" x="451" y="242.0" /></svg>