<?xml version="1.0" encoding="utf-8" ?>
<svg baseProfile="full" height="984" version="1.1" width="824" xmlns="http://www.w3.org/2000/svg" xmlns:ev="http://www.w3.org/2001/xml-events" xmlns:xlink="http://www.w3.org/1999/xlink"><defs /><rect fill="none" height="960" stroke="black" stroke-width="4" width="800" x="12" y="12" /><rect fill="lightblue" height="360" stroke="black" stroke-width="2" width="480" x="332" y="592" /><text alignment-baseline="middle" font-size="14" text-anchor="middle" x="572.0" y="772.0">Living</text><rect fill="lightblue" height="240" stroke="black" stroke-width="2" width="320" x="12" y="372" /><text alignment-baseline="middle" font-size="14" text-anchor="middle" x="172.0" y="492.0">Kitchen</text><rect fill="lightblue" height="240" stroke="black" stroke-width="2" width="280" x="52" y="612" /><text alignment-baseline="middle" font-size="14" text-anchor="middle" x="192.0" y="732.0">Dining</text><rect fill="lightblue" height="400" stroke="black" stroke-width="2" width="80" x="372.0" y="572" /><text alignment-baseline="middle" font-size="14" text-anchor="middle" x="412.0" y="772.0">Hall</text><rect fill="lightblue" height="240" stroke="black" stroke-width="2" width="280" x="72" y="12" /><text alignment-baseline="middle" font-size="14" text-anchor="middle" x="212.0" y="132.0">Bedroom 1</text><rect fill="lightblue" height="240" stroke="black" stroke-width="2" width="280" x="472" y="12" /><text alignment-baseline="middle" font-size="14" text-anchor="middle" x="612.0" y="132.0">Bedroom 2</text><rect fill="lightblue" height="160" stroke="black" stroke-width="2" width="200" x="472" y="252" /><text alignment-baseline="middle" font-size="14" text-anchor="middle" x="572.0" y="332.0">Bathroom 1</text><rect fill="lightblue" height="160" stroke="black" stroke-width="2" width="200" x="472" y="412" /><text alignment-baseline="middle" font-size="14" text-anchor="middle" x="572.0" y="492.0">Bathroom 2</text><rect fill="white" height="100" stroke="none" width="2" x="332" y="682.0" /><rect fill="white" height="2" stroke="none" width="100" x="142.0" y="611" /><rect fill="white" height="100" stroke="none" width="2" x="813.0" y="722.0" /></svg>